<?xml version="1.0" encoding="UTF-8"?>
<svg version="1.1" xmlns="http://www.w3.org/2000/svg" width="97" height="131">
<path d="M0 0 C1.54412567 -0.00786278 1.54412567 -0.00786278 3.1194458 -0.0158844 C5.29120994 -0.02228742 7.46300883 -0.02098998 9.63476562 -0.01245117 C12.92902663 -0.0039683 16.22153614 -0.03268447 19.515625 -0.06445312 C21.63541615 -0.06606622 23.75521034 -0.06548553 25.875 -0.0625 C27.33181183 -0.07935097 27.33181183 -0.07935097 28.8180542 -0.09654236 C39.97131712 0.01505257 49.1300101 3.72674493 57.203125 11.43359375 C68.03114633 22.77621411 68.81548401 34.82067376 68.734375 49.69140625 C68.73707555 51.44774591 68.74096263 53.20408411 68.74597168 54.9604187 C68.7518372 58.62333553 68.74339761 62.28585964 68.72460938 65.94873047 C68.7017875 70.62354746 68.71498186 75.29744725 68.73889923 79.97223091 C68.75340852 83.5927105 68.7487284 87.21297542 68.73838806 90.83346176 C68.73573668 92.55649807 68.73893405 94.27955443 68.74830627 96.00256729 C68.79196054 106.27819926 68.73033225 114.90034044 61.953125 123.18359375 C55.17067837 128.73286827 49.79556883 131.52758357 40.91308594 131.59472656 C39.88141296 131.60433411 38.84973999 131.61394165 37.7868042 131.62384033 C36.68153381 131.62809021 35.57626343 131.63234009 34.4375 131.63671875 C33.28952942 131.64241882 32.14155884 131.6481189 30.95880127 131.6539917 C28.53130003 131.66342825 26.10378605 131.66997033 23.67626953 131.67382812 C19.98056434 131.68352178 16.28541825 131.71455398 12.58984375 131.74609375 C10.22656579 131.75262557 7.86328386 131.75787534 5.5 131.76171875 C4.40282654 131.77406555 3.30565308 131.78641235 2.17523193 131.7991333 C-8.02575717 131.76981729 -16.3610323 129.67196439 -23.796875 122.43359375 C-30.96620152 113.57896461 -29.50337367 101.88323863 -29.42578125 91.17578125 C-29.42661102 89.10173417 -29.42907449 87.02768716 -29.43309021 84.9536438 C-29.43593895 80.62139939 -29.42133464 76.28967464 -29.39379883 71.95751953 C-29.35967531 66.41830508 -29.3657575 60.88001651 -29.3844614 55.34075737 C-29.3950523 51.06320542 -29.38607523 46.78586721 -29.37107658 42.50833511 C-29.36591256 40.46629598 -29.36635484 38.42423438 -29.37262154 36.38219833 C-29.37810073 33.52498434 -29.35761368 30.66907663 -29.33032227 27.81201172 C-29.33684814 26.97751495 -29.34337402 26.14301819 -29.35009766 25.28323364 C-29.23164176 17.95237494 -26.78008432 11.81569168 -21.484375 6.62109375 C-20.95199219 6.07839844 -20.41960938 5.53570312 -19.87109375 4.9765625 C-13.5412688 0.26793566 -7.64060508 -0.02290406 0 0 Z M-13.796875 16.43359375 C-16.83540858 21.19780793 -17.22833955 25.40359955 -17.18505859 30.9140625 C-17.19031555 31.74410797 -17.19557251 32.57415344 -17.20098877 33.42935181 C-17.2141413 36.16012657 -17.20546761 38.89031355 -17.1953125 41.62109375 C-17.1973346 43.52628694 -17.20024718 45.43147937 -17.20401001 47.33666992 C-17.20842693 51.32445667 -17.20202263 55.31204146 -17.18798828 59.29980469 C-17.17089682 64.40425188 -17.18074138 69.5082258 -17.19870567 74.61265564 C-17.20956056 78.5452428 -17.20608933 82.47771827 -17.1983223 86.41030884 C-17.19632501 88.292125 -17.19876298 90.1739514 -17.20576096 92.05575562 C-17.2134035 94.68848424 -17.2017322 97.32045279 -17.18505859 99.953125 C-17.19113129 100.72629059 -17.19720398 101.49945618 -17.20346069 102.29605103 C-17.14740384 107.08831144 -16.32846914 110.36134523 -13.796875 114.43359375 C-8.43652862 119.63768712 -2.42335467 119.01421951 4.609375 118.96484375 C6.40646912 118.97058411 6.40646912 118.97058411 8.23986816 118.97644043 C10.76815635 118.97915751 13.29647275 118.97181074 15.82470703 118.95507812 C19.68976648 118.93366775 23.55296697 118.954889 27.41796875 118.98046875 C29.87760826 118.97782544 32.33724662 118.9727004 34.796875 118.96484375 C35.95014282 118.97294067 37.10341064 118.9810376 38.29162598 118.98937988 C44.33753194 118.91888223 48.64389665 118.85992152 53.203125 114.43359375 C55.92789821 109.90939763 56.58116506 106.55285311 56.59130859 101.30175781 C56.59656555 100.6146875 56.60182251 99.92761719 56.60723877 99.21972656 C56.62037263 96.96265484 56.61172083 94.70629689 56.6015625 92.44921875 C56.60358607 90.86749131 56.60649987 89.28576479 56.61026001 87.70404053 C56.6146752 84.39212138 56.6082819 81.08044547 56.59423828 77.76855469 C56.57720282 73.54781688 56.58695653 69.32765384 56.60495567 65.10693741 C56.61586347 61.8398618 56.61231439 58.57291945 56.6045723 55.30583954 C56.60258663 53.75109538 56.60497141 52.19633868 56.61201096 50.64160919 C56.6548552 38.51383291 56.15353009 28.49042821 47.3984375 19.34765625 C40.77096754 13.56925717 33.74232899 12.2688467 25.1875 12.1953125 C24.29830872 12.18724075 23.40911743 12.17916901 22.49298096 12.17085266 C20.6100865 12.15702332 18.72716709 12.14629602 16.84423828 12.13842773 C13.97770079 12.1212411 11.11232479 12.07734831 8.24609375 12.03320312 C6.41407096 12.02307331 4.58203838 12.01455811 2.75 12.0078125 C1.89871521 11.99030441 1.04743042 11.97279633 0.17034912 11.95475769 C-5.64461727 11.9757437 -9.12125411 12.88108211 -13.796875 16.43359375 Z " fill="#EAF4F4" transform="translate(28.796875,-0.43359375)"/>
<path d="M0 0 C4.43415283 0.53848521 7.61028225 1.61730965 11.4765625 3.8359375 C12.97703125 4.69058594 12.97703125 4.69058594 14.5078125 5.5625 C15.53648438 6.160625 16.56515625 6.75875 17.625 7.375 C18.66140625 7.96539062 19.6978125 8.55578125 20.765625 9.1640625 C25.01180143 11.59985363 29.13475282 13.98467885 33 17 C32.88012695 19.24853516 32.88012695 19.24853516 32 22 C29.37963867 24.05224609 29.37963867 24.05224609 25.91796875 26.0234375 C25.30738113 26.37387115 24.69679352 26.72430481 24.06770325 27.08535767 C22.77683724 27.82100419 21.48124592 28.54841211 20.18139648 29.26806641 C18.1930696 30.37190797 16.22431788 31.50571295 14.25585938 32.64453125 C4.67163318 38.06761831 4.67163318 38.06761831 1.6574707 37.76416016 C0 37 0 37 -1 36 C-1.1009003 33.50243196 -1.13971766 31.03312358 -1.1328125 28.53515625 C-1.13376923 27.78664902 -1.13472595 27.03814178 -1.13571167 26.26695251 C-1.13639346 24.68065304 -1.13453922 23.09435079 -1.13037109 21.50805664 C-1.12503024 19.07627091 -1.1303122 16.64467051 -1.13671875 14.21289062 C-1.13605782 12.67447876 -1.13477635 11.13606701 -1.1328125 9.59765625 C-1.13483673 8.86740738 -1.13686096 8.13715851 -1.13894653 7.38478088 C-1.11495668 2.22991336 -1.11495668 2.22991336 0 0 Z " fill="#E9F4F4" transform="translate(32,27)"/>
<path d="M0 0 C1.39120471 0.00015906 2.78241534 0.00585033 4.17358398 0.01586914 C4.90463852 0.01728409 5.63569305 0.01869904 6.38890076 0.02015686 C8.73253406 0.02577131 11.07607313 0.03832617 13.41967773 0.05102539 C15.00496282 0.05603853 16.59024939 0.06060176 18.17553711 0.06469727 C22.06945383 0.07574542 25.96329979 0.09301967 29.85717773 0.11352539 C29.85717773 3.74352539 29.85717773 7.37352539 29.85717773 11.11352539 C18.96717773 11.11352539 8.07717773 11.11352539 -3.14282227 11.11352539 C-4.30743653 7.6196826 -4.27850545 4.7769715 -4.14282227 1.11352539 C-3.14282227 0.11352539 -3.14282227 0.11352539 0 0 Z " fill="#EAF4F4" transform="translate(35.142822265625,92.886474609375)"/>
<path d="M0 0 C1.39120471 0.00015906 2.78241534 0.00585033 4.17358398 0.01586914 C4.90463852 0.01728409 5.63569305 0.01869904 6.38890076 0.02015686 C8.73253406 0.02577131 11.07607313 0.03832617 13.41967773 0.05102539 C15.00496282 0.05603853 16.59024939 0.06060176 18.17553711 0.06469727 C22.06945383 0.07574542 25.96329979 0.09301967 29.85717773 0.11352539 C29.85717773 3.41352539 29.85717773 6.71352539 29.85717773 10.11352539 C18.63717773 10.11352539 7.41717773 10.11352539 -4.14282227 10.11352539 C-4.14282227 0.14964751 -4.14282227 0.14964751 0 0 Z " fill="#EAF4F4" transform="translate(35.142822265625,75.886474609375)"/>
</svg>
